<svg xmlns="http://www.w3.org/2000/svg" width="256" height="256" viewBox="0 0 256 256" fill="none">
<path d="M 54.81,5.76 H 199.63 C 228.52,5.76 250.11,30.16 250.11,56.11 V 200.32 C 250.11,227.71 227.72,250.24 199.63,250.24 H 54.81 C 27.62,250.24 5.89,228.42 5.89,200.32 V 55.68 C 5.89,28.71 27.05,5.76 54.81,5.76 Z" fill="#6B8E9D"/>
<path d="M 33.56,77.74 L 85.25,91.66 L 97.97,65.47 H 157.99 L 170.08,91.12 L 222.09,77.74 L 213.38,87.92 C 201.22,102.06 193.08,117.89 192.19,137.91 L 216.81,189.98 H 37.62 L 62.95,137.62 C 62.42,118.76 55.66,102.93 42.28,87.38 L 33.56,77.74 Z" fill="#333333"/>
<path d="M 48.12,87.19 L 83.29,96.11 L 66.72,129.15 C 64.12,113.89 58.28,100.16 48.12,87.19 Z" fill="#F18C2C"/>
<path d="M 87.91,99.21 L 70.08,135.97 C 85.16,137.84 96.91,144.81 112.46,159.21 L 124.98,143.94 L 87.91,99.21 Z" fill="#668795"/>
<path d="M 90.02,94.96 L 100.72,70.08 H 140.19 C 131.18,75.01 127.21,86.14 119.41,103.81 L 108.94,91.48 V 118.76 L 90.02,94.96 Z" fill="#A0BAC6"/>
<path d="M 114.77,105.53 L 120.92,113.92 H 133.98 L 141.05,105.53 V 124.12 L 127.72,140.32 L 114.38,123.54 L 114.77,105.53 Z" fill="#F18C2C"/>
<path d="M 130.02,90.13 C 135.46,77.89 142.06,70.97 155.08,70.61 L 166.52,93.99 L 146.21,118.42 V 91.14 L 136.03,104.21 L 129.46,90.87 L 130.02,90.13 Z" fill="#D36929"/>
<path d="M 168.81,99.21 L 186.64,135.97 C 168.72,137.96 150.79,147.81 127.41,182.67 C 123.46,174.76 120.61,170.02 115.46,163.42 L 168.81,99.21 Z" fill="#A0BAC6"/>
<path d="M 173.06,96.11 L 207.25,87.19 C 197.09,100.16 191.82,111.77 188.09,129.15 L 173.06,96.11 Z" fill="#668795"/>
<path d="M 156.91,152.64 C 166.02,144.81 174.83,141.66 187.99,139.79 L 208.86,185.31 H 172.1 L 156.91,152.64 Z" fill="#F18C2C"/>
<path d="M 169.18,100.07 L 144.8,157.91 L 130.49,143.02 L 168.81,99.21 L 169.18,100.07 Z" fill="#668795"/>
<path d="M 89.01,100.07 L 109.16,155.97 L 124.32,143.94 L 87.91,99.21 L 89.01,100.07 Z" fill="#516D77"/>
<path d="M 64.31,147.01 L 94.81,159.21 L 83.88,185.31 H 46.61 L 64.31,147.01 Z" fill="#A0BAC6"/>
<path d="M 65.01,145.4 L 67.41,139.79 C 78.96,140.65 87.19,144.81 97.66,152.64 L 95.41,159.21 C 86.3,151.37 78.17,147.71 65.01,145.4 Z" fill="#668795"/>
<path d="M 158.38,156.06 L 156.91,152.64 C 166.02,144.81 174.83,141.66 187.99,139.79 L 191.21,147.62 C 178.69,148.48 168.85,151.28 158.38,156.06 Z" fill="#D36929"/>
</svg>
